# xmcd
#
# Track frame offsets:
#	150
#	21000
#	48270
#	68435
#	83810
#	100437
#	120912
#	137424
#	151874
#	170729
#	190584
#	210026
#	223648
#	241708
#	258438
#	281975
#
# Disc length: 3909 seconds
#
# Revision: 1
# Processed by: cddbd v1.5.2PL0 Copyright (c) Steve Scherf et al.
# Submitted via: audiograbber 1.83.01
#
DISCID=cb0f4310
DTITLE=Betty - A passo a passo...
DYEAR=1900
DGENRE=Ballad
TTITLE0=Je t´aime
TTITLE1=Caruso
TTITLE2=La Boheme
TTITLE3=Alleria
TTITLE4=La fin des vacances
TTITLE5=Adagio
TTITLE6=La vie en rose
TTITLE7=E penso a te
TTITLE8=Con te partirò
TTITLE9=Les feuilles mortes
TTITLE10=Tu si na cosa grande
TTITLE11=No je ne regrette Rien
TTITLE12=Vedrai vedrai
TTITLE13=Cu' mmé
TTITLE14=La chanson des vieux amants
TTITLE15=Lei
EXTD=
EXTT0=
EXTT1=
EXTT2=
EXTT3=
EXTT4=
EXTT5=
EXTT6=
EXTT7=
EXTT8=
EXTT9=
EXTT10=
EXTT11=
EXTT12=
EXTT13=
EXTT14=
EXTT15=
PLAYORDER=
